<svg xmlns="http://www.w3.org/2000/svg" viewBox="0 0 1280 900" width="1280" height="900">
  <style>
    text { font-family: 'Helvetica Neue', Helvetica, Arial, 'PingFang SC', 'Microsoft YaHei', 'Microsoft JhengHei', 'SimHei', sans-serif; }
    .title { font-size: 28px; font-weight: 700; fill: #111827; }
    .subtitle { font-size: 14px; fill: #6b7280; }
    .section-title { font-size: 13px; font-weight: 700; fill: #2563eb; letter-spacing: 0.3px; }
    .box-title { font-size: 14px; font-weight: 700; fill: #111827; }
    .box-sub { font-size: 12px; fill: #6b7280; }
    .small { font-size: 11px; fill: #6b7280; }
    .note-title { font-size: 13px; font-weight: 700; fill: #111827; }
  </style>
  <defs>
    <marker id="arrow-blue" markerWidth="10" markerHeight="7" refX="9" refY="3.5" orient="auto">
      <polygon points="0 0, 10 3.5, 0 7" fill="#2563eb"/>
    </marker>
    <marker id="arrow-green" markerWidth="10" markerHeight="7" refX="9" refY="3.5" orient="auto">
      <polygon points="0 0, 10 3.5, 0 7" fill="#16a34a"/>
    </marker>
    <marker id="arrow-orange" markerWidth="10" markerHeight="7" refX="9" refY="3.5" orient="auto">
      <polygon points="0 0, 10 3.5, 0 7" fill="#ea580c"/>
    </marker>
    <marker id="arrow-purple" markerWidth="10" markerHeight="7" refX="9" refY="3.5" orient="auto">
      <polygon points="0 0, 10 3.5, 0 7" fill="#7c3aed"/>
    </marker>
    <marker id="arrow-gray" markerWidth="10" markerHeight="7" refX="9" refY="3.5" orient="auto">
      <polygon points="0 0, 10 3.5, 0 7" fill="#6b7280"/>
    </marker>
    <marker id="arrow-red" markerWidth="10" markerHeight="7" refX="9" refY="3.5" orient="auto">
      <polygon points="0 0, 10 3.5, 0 7" fill="#dc2626"/>
    </marker>
    <filter id="shadowSoft" x="-15%" y="-15%" width="130%" height="130%">
      <feDropShadow dx="0" dy="4" stdDeviation="6" flood-color="#0f172a" flood-opacity="0.10"/>
    </filter>
  </defs>
  <rect width="1280" height="900" fill="#ffffff"/>
  <text x="640" y="42" text-anchor="middle" class="title">Lib Guard 项目架构与主流程</text>
  <text x="640" y="66" text-anchor="middle" class="subtitle">库入库、扫描、对比、版本详情投影、人工审查与 Release 的单一闭环</text>
  <g transform="translate(940, 20)">
    <rect x="0" y="0" width="286" height="56" rx="10" fill="#ffffff" stroke="#e5e7eb"/>
    <text x="12" y="20" class="note-title">箭头</text>
    <line x1="56" y1="17" x2="78" y2="17" stroke="#2563eb" stroke-width="2" marker-end="url(#arrow-blue)"/>
    <text x="56" y="38" class="small">主流程</text>
    <line x1="100" y1="17" x2="122" y2="17" stroke="#16a34a" stroke-width="2" marker-end="url(#arrow-green)"/>
    <text x="100" y="38" class="small">证据</text>
    <line x1="144" y1="17" x2="166" y2="17" stroke="#ea580c" stroke-width="2" marker-end="url(#arrow-orange)"/>
    <text x="144" y="38" class="small">人工</text>
    <line x1="188" y1="17" x2="210" y2="17" stroke="#7c3aed" stroke-width="2" marker-end="url(#arrow-purple)"/>
    <text x="188" y="38" class="small">投影</text>
    <line x1="232" y1="17" x2="254" y2="17" stroke="#6b7280" stroke-width="2" marker-end="url(#arrow-gray)"/>
    <text x="232" y="38" class="small">低频</text>
  </g>
  <rect x="40" y="100" width="250" height="250" rx="14" fill="none" stroke="#dbe5f1" stroke-width="1.4" stroke-dasharray="7 5"/>
  <text x="56" y="124" class="section-title">1. 入库来源</text>
  <rect x="330" y="100" width="280" height="250" rx="14" fill="none" stroke="#dbe5f1" stroke-width="1.4" stroke-dasharray="7 5"/>
  <text x="346" y="124" class="section-title">2. 目录与版本索引</text>
  <rect x="650" y="100" width="590" height="250" rx="14" fill="none" stroke="#dbe5f1" stroke-width="1.4" stroke-dasharray="7 5"/>
  <text x="666" y="124" class="section-title">3. 单版本扫描</text>
  <rect x="40" y="390" width="570" height="260" rx="14" fill="none" stroke="#dbe5f1" stroke-width="1.4" stroke-dasharray="7 5"/>
  <text x="56" y="414" class="section-title">4. 默认对比与审查模型</text>
  <rect x="650" y="390" width="590" height="260" rx="14" fill="none" stroke="#dbe5f1" stroke-width="1.4" stroke-dasharray="7 5"/>
  <text x="666" y="414" class="section-title">5. Version Detail 唯一审查投影</text>
  <rect x="40" y="690" width="1200" height="145" rx="14" fill="none" stroke="#dbe5f1" stroke-width="1.4" stroke-dasharray="7 5"/>
  <text x="56" y="714" class="section-title">6. Release 与热路径刷新</text>
  <rect x="65" y="145" width="200" height="76" rx="10" fill="#eff6ff" stroke="#bfdbfe" stroke-width="1.4" filter="url(#shadowSoft)"/>
  <circle cx="87" cy="169" r="10" fill="#bfdbfe" opacity="0.35"/>
  <text x="87" y="173" text-anchor="middle" font-size="12" fill="#111827">R</text>
  <text x="107" y="170" class="box-title">真实库目录</text>
  <text x="107" y="190" class="box-sub">Vendor / library / version</text>
  <text x="107" y="207" class="box-sub">raw_root 只读输入</text>
  <rect x="65" y="245" width="200" height="76" rx="10" fill="#fff7ed" stroke="#fed7aa" stroke-width="1.4" filter="url(#shadowSoft)"/>
  <circle cx="87" cy="269" r="10" fill="#fed7aa" opacity="0.35"/>
  <text x="87" y="273" text-anchor="middle" font-size="12" fill="#111827">D</text>
  <text x="107" y="270" class="box-title">候选发现</text>
  <text x="107" y="290" class="box-sub">library discover</text>
  <text x="107" y="307" class="box-sub">低置信度不自动入库</text>
  <rect x="355" y="145" width="230" height="76" rx="10" fill="#f0fdf4" stroke="#bbf7d0" stroke-width="1.4" filter="url(#shadowSoft)"/>
  <circle cx="377" cy="169" r="10" fill="#bbf7d0" opacity="0.35"/>
  <text x="377" y="173" text-anchor="middle" font-size="12" fill="#111827">S</text>
  <text x="397" y="170" class="box-title">库注册表</text>
  <text x="397" y="190" class="box-sub">library_catalog.yml</text>
  <text x="397" y="207" class="box-sub">library_registry.tsv</text>
  <rect x="355" y="245" width="230" height="76" rx="10" fill="#f0fdfa" stroke="#99f6e4" stroke-width="1.4" filter="url(#shadowSoft)"/>
  <circle cx="377" cy="269" r="10" fill="#99f6e4" opacity="0.35"/>
  <text x="377" y="273" text-anchor="middle" font-size="12" fill="#111827">I</text>
  <text x="397" y="270" class="box-title">版本索引</text>
  <text x="397" y="290" class="box-sub">version_index.json</text>
  <text x="397" y="307" class="box-sub">effective / window / status</text>
  <rect x="675" y="130" width="165" height="72" rx="10" fill="#ffffff" stroke="#d1d5db" stroke-width="1.4" filter="url(#shadowSoft)"/>
  <text x="691" y="155" class="box-title">Walk</text>
  <text x="691" y="175" class="box-sub">遍历文件</text>
  <text x="691" y="192" class="box-sub">跳过无效目录</text>
  <rect x="865" y="130" width="165" height="72" rx="10" fill="#ffffff" stroke="#d1d5db" stroke-width="1.4" filter="url(#shadowSoft)"/>
  <text x="881" y="155" class="box-title">Classify</text>
  <text x="881" y="175" class="box-sub">canonical view_type</text>
  <text x="881" y="192" class="box-sub">大文件策略</text>
  <rect x="1055" y="130" width="160" height="72" rx="10" fill="#ffffff" stroke="#d1d5db" stroke-width="1.4" filter="url(#shadowSoft)"/>
  <text x="1071" y="155" class="box-title">Hash</text>
  <text x="1071" y="175" class="box-sub">size / mtime / hash</text>
  <text x="1071" y="192" class="box-sub">缓存命中</text>
  <rect x="770" y="250" width="190" height="72" rx="10" fill="#faf5ff" stroke="#ddd6fe" stroke-width="1.4" filter="url(#shadowSoft)"/>
  <text x="786" y="275" class="box-title">Parser Evidence</text>
  <text x="786" y="295" class="box-sub">LEF / CDL / SDC 等</text>
  <text x="786" y="312" class="box-sub">summary-only / metadata-only</text>
  <rect x="995" y="250" width="190" height="72" rx="10" fill="#eff6ff" stroke="#bfdbfe" stroke-width="1.4" filter="url(#shadowSoft)"/>
  <text x="1011" y="275" class="box-title">Scan Artifacts</text>
  <text x="1011" y="295" class="box-sub">scan_out / reports</text>
  <text x="1011" y="312" class="box-sub">scan_state.json</text>
  <rect x="70" y="430" width="190" height="82" rx="10" fill="#eff6ff" stroke="#bfdbfe" stroke-width="1.4" filter="url(#shadowSoft)"/>
  <circle cx="92" cy="454" r="10" fill="#bfdbfe" opacity="0.35"/>
  <text x="92" y="458" text-anchor="middle" font-size="12" fill="#111827">B</text>
  <text x="112" y="455" class="box-title">Base 选择</text>
  <text x="112" y="475" class="box-sub">explicit 最高</text>
  <text x="112" y="492" class="box-sub">previous/current effective</text>
  <rect x="300" y="430" width="190" height="82" rx="10" fill="#ffffff" stroke="#d1d5db" stroke-width="1.4" filter="url(#shadowSoft)"/>
  <circle cx="322" cy="454" r="10" fill="#d1d5db" opacity="0.35"/>
  <text x="322" y="458" text-anchor="middle" font-size="12" fill="#111827">M</text>
  <text x="342" y="455" class="box-title">文件匹配</text>
  <text x="342" y="475" class="box-sub">logical path</text>
  <text x="342" y="492" class="box-sub">hash / basename 证据</text>
  <rect x="70" y="545" width="190" height="82" rx="10" fill="#fff7ed" stroke="#fed7aa" stroke-width="1.4" filter="url(#shadowSoft)"/>
  <circle cx="92" cy="569" r="10" fill="#fed7aa" opacity="0.35"/>
  <text x="92" y="573" text-anchor="middle" font-size="12" fill="#111827">V</text>
  <text x="112" y="570" class="box-title">View Delta</text>
  <text x="112" y="590" class="box-sub">按 view 聚合</text>
  <text x="112" y="607" class="box-sub">新增/删除/修改</text>
  <rect x="300" y="545" width="190" height="82" rx="10" fill="#f0fdf4" stroke="#bbf7d0" stroke-width="1.4" filter="url(#shadowSoft)"/>
  <circle cx="322" cy="569" r="10" fill="#bbf7d0" opacity="0.35"/>
  <text x="322" y="573" text-anchor="middle" font-size="12" fill="#111827">C</text>
  <text x="342" y="570" class="box-title">Review State</text>
  <text x="342" y="590" class="box-sub">VersionDetailReviewContext</text>
  <text x="342" y="607" class="box-sub">对比范围/使用影响</text>
  <rect x="690" y="430" width="200" height="82" rx="10" fill="#eff6ff" stroke="#bfdbfe" stroke-width="1.4" filter="url(#shadowSoft)"/>
  <circle cx="712" cy="454" r="10" fill="#bfdbfe" opacity="0.35"/>
  <text x="712" y="458" text-anchor="middle" font-size="12" fill="#111827">U</text>
  <text x="732" y="455" class="box-title">第一屏结论</text>
  <text x="732" y="475" class="box-sub">IP 接入状态</text>
  <text x="732" y="492" class="box-sub">Base / View Delta / 必查项</text>
  <rect x="920" y="430" width="200" height="82" rx="10" fill="#f0fdfa" stroke="#99f6e4" stroke-width="1.4" filter="url(#shadowSoft)"/>
  <circle cx="942" cy="454" r="10" fill="#99f6e4" opacity="0.35"/>
  <text x="942" y="458" text-anchor="middle" font-size="12" fill="#111827">A</text>
  <text x="962" y="455" class="box-title">使用场景影响</text>
  <text x="962" y="475" class="box-sub">Timing / Physical</text>
  <text x="962" y="492" class="box-sub">Integration / Constraint</text>
  <rect x="690" y="545" width="200" height="82" rx="10" fill="#faf5ff" stroke="#ddd6fe" stroke-width="1.4" filter="url(#shadowSoft)"/>
  <circle cx="712" cy="569" r="10" fill="#ddd6fe" opacity="0.35"/>
  <text x="712" y="573" text-anchor="middle" font-size="12" fill="#111827">E</text>
  <text x="732" y="570" class="box-title">证据分层</text>
  <text x="732" y="590" class="box-sub">PASS / summary-only</text>
  <text x="732" y="607" class="box-sub">metadata-only / skipped</text>
  <rect x="920" y="545" width="200" height="82" rx="10" fill="#f9fafb" stroke="#d1d5db" stroke-width="1.4" filter="url(#shadowSoft)"/>
  <circle cx="942" cy="569" r="10" fill="#d1d5db" opacity="0.35"/>
  <text x="942" y="573" text-anchor="middle" font-size="12" fill="#111827">G</text>
  <text x="962" y="570" class="box-title">管理审计折叠</text>
  <text x="962" y="590" class="box-sub">raw json / parser detail</text>
  <text x="962" y="607" class="box-sub">release gate / audit</text>
  <rect x="70" y="725" width="190" height="78" rx="10" fill="#f0fdf4" stroke="#bbf7d0" stroke-width="1.4" filter="url(#shadowSoft)"/>
  <text x="86" y="750" class="box-title">Review Gate</text>
  <text x="86" y="770" class="box-sub">rv accept / waive</text>
  <text x="86" y="787" class="box-sub">人工确认状态</text>
  <rect x="300" y="725" width="190" height="78" rx="10" fill="#eff6ff" stroke="#bfdbfe" stroke-width="1.4" filter="url(#shadowSoft)"/>
  <text x="316" y="750" class="box-title">Release Bundle</text>
  <text x="316" y="770" class="box-sub">link 方式组合</text>
  <text x="316" y="787" class="box-sub">目录展平 + VIEW 大写</text>
  <rect x="530" y="725" width="190" height="78" rx="10" fill="#fff7ed" stroke="#fed7aa" stroke-width="1.4" filter="url(#shadowSoft)"/>
  <text x="546" y="750" class="box-title">Effective Pointer</text>
  <text x="546" y="770" class="box-sub">current_effective</text>
  <text x="546" y="787" class="box-sub">原子写入 + audit</text>
  <rect x="760" y="725" width="190" height="78" rx="10" fill="#faf5ff" stroke="#ddd6fe" stroke-width="1.4" filter="url(#shadowSoft)"/>
  <text x="776" y="750" class="box-title">Render Impact</text>
  <text x="776" y="770" class="box-sub">只刷新受影响详情页</text>
  <text x="776" y="787" class="box-sub">deferred catalog index</text>
  <rect x="990" y="725" width="190" height="78" rx="10" fill="#ffffff" stroke="#d1d5db" stroke-width="1.4" filter="url(#shadowSoft)"/>
  <text x="1006" y="750" class="box-title">HTML 输出</text>
  <text x="1006" y="770" class="box-sub">Version Detail</text>
  <text x="1006" y="787" class="box-sub">Library / Catalog 低频重建</text>
  <path d="M 265,183 L 355,183" fill="none" stroke="#2563eb" stroke-width="2" marker-end="url(#arrow-blue)"/>
  <rect x="305.0" y="163" width="100" height="18" rx="9" fill="#ffffff" opacity="0.95"/>
  <text x="355" y="176" text-anchor="middle" class="small">accept/apply</text>
  <path d="M 165,221 L 165,245" fill="none" stroke="#ea580c" stroke-width="2" marker-end="url(#arrow-orange)"/>
  <rect x="129.0" y="225" width="72" height="18" rx="9" fill="#ffffff" opacity="0.95"/>
  <text x="165" y="238" text-anchor="middle" class="small">discover</text>
  <path d="M 585,183 L 642,166" fill="none" stroke="#2563eb" stroke-width="2" marker-end="url(#arrow-blue)"/>
  <rect x="600.0" y="147" width="58" height="18" rx="9" fill="#ffffff" opacity="0.95"/>
  <text x="629" y="160" text-anchor="middle" class="small">scan</text>
  <path d="M 840,166 L 865,166" fill="none" stroke="#2563eb" stroke-width="2" marker-end="url(#arrow-blue)"/>
  <path d="M 1030,166 L 1055,166" fill="none" stroke="#2563eb" stroke-width="2" marker-end="url(#arrow-blue)"/>
  <path d="M 948,202 L 948,225 L 880,250" fill="none" stroke="#16a34a" stroke-width="2" marker-end="url(#arrow-green)"/>
  <rect x="919.0" y="205" width="58" height="18" rx="9" fill="#ffffff" opacity="0.95"/>
  <text x="948" y="218" text-anchor="middle" class="small">parse</text>
  <path d="M 960,286 L 995,286" fill="none" stroke="#16a34a" stroke-width="2" marker-end="url(#arrow-green)"/>
  <rect x="966.0" y="266" width="58" height="18" rx="9" fill="#ffffff" opacity="0.95"/>
  <text x="995" y="279" text-anchor="middle" class="small">write</text>
  <path d="M 470,321 L 470,365 L 165,365 L 165,430" fill="none" stroke="#7c3aed" stroke-width="2" marker-end="url(#arrow-purple)"/>
  <rect x="118.5" y="344" width="93" height="18" rx="9" fill="#ffffff" opacity="0.95"/>
  <text x="165" y="357" text-anchor="middle" class="small">catalog ref</text>
  <path d="M 1090,322 L 1090,365 L 395,365 L 395,430" fill="none" stroke="#7c3aed" stroke-width="2" marker-end="url(#arrow-purple)"/>
  <rect x="341.5" y="344" width="107" height="18" rx="9" fill="#ffffff" opacity="0.95"/>
  <text x="395" y="357" text-anchor="middle" class="small">scan evidence</text>
  <path d="M 260,471 L 300,471" fill="none" stroke="#2563eb" stroke-width="2" marker-end="url(#arrow-blue)"/>
  <path d="M 395,512 L 395,528 L 165,528 L 165,545" fill="none" stroke="#ea580c" stroke-width="2" marker-end="url(#arrow-orange)"/>
  <rect x="125.5" y="508" width="79" height="18" rx="9" fill="#ffffff" opacity="0.95"/>
  <text x="165" y="521" text-anchor="middle" class="small">view diff</text>
  <path d="M 260,586 L 300,586" fill="none" stroke="#2563eb" stroke-width="2" marker-end="url(#arrow-blue)"/>
  <path d="M 490,586 L 620,586 L 620,471 L 690,471" fill="none" stroke="#2563eb" stroke-width="2" marker-end="url(#arrow-blue)"/>
  <rect x="587.5" y="451" width="65" height="18" rx="9" fill="#ffffff" opacity="0.95"/>
  <text x="620" y="464" text-anchor="middle" class="small">project</text>
  <path d="M 490,586 L 690,586" fill="none" stroke="#16a34a" stroke-width="2" marker-end="url(#arrow-green)"/>
  <rect x="654.0" y="566" width="72" height="18" rx="9" fill="#ffffff" opacity="0.95"/>
  <text x="690" y="579" text-anchor="middle" class="small">evidence</text>
  <path d="M 890,471 L 920,471" fill="none" stroke="#2563eb" stroke-width="2" marker-end="url(#arrow-blue)"/>
  <path d="M 890,586 L 920,586" fill="none" stroke="#6b7280" stroke-width="2" marker-end="url(#arrow-gray)" stroke-dasharray="5 4"/>
  <rect x="891.0" y="566" width="58" height="18" rx="9" fill="#ffffff" opacity="0.95"/>
  <text x="920" y="579" text-anchor="middle" class="small">fold</text>
  <path d="M 395,627 L 395,670 L 165,670 L 165,725" fill="none" stroke="#ea580c" stroke-width="2" marker-end="url(#arrow-orange)"/>
  <rect x="129.0" y="649" width="72" height="18" rx="9" fill="#ffffff" opacity="0.95"/>
  <text x="165" y="662" text-anchor="middle" class="small">decision</text>
  <path d="M 260,764 L 300,764" fill="none" stroke="#2563eb" stroke-width="2" marker-end="url(#arrow-blue)"/>
  <path d="M 490,764 L 530,764" fill="none" stroke="#2563eb" stroke-width="2" marker-end="url(#arrow-blue)"/>
  <path d="M 720,764 L 760,764" fill="none" stroke="#7c3aed" stroke-width="2" marker-end="url(#arrow-purple)"/>
  <rect x="731.0" y="744" width="58" height="18" rx="9" fill="#ffffff" opacity="0.95"/>
  <text x="760" y="757" text-anchor="middle" class="small">impact</text>
  <path d="M 950,764 L 990,764" fill="none" stroke="#7c3aed" stroke-width="2" marker-end="url(#arrow-purple)"/>
  <path d="M 1085,725 L 1085,650" fill="none" stroke="#6b7280" stroke-width="2" marker-end="url(#arrow-gray)" stroke-dasharray="5 4"/>
  <rect x="1056.0" y="630" width="58" height="18" rx="9" fill="#ffffff" opacity="0.95"/>
  <text x="1085" y="643" text-anchor="middle" class="small">低频回写</text>
  <rect x="40" y="850" width="1200" height="34" rx="10" fill="#f9fafb" stroke="#e5e7eb"/>
  <text x="60" y="872" class="small">短命令主线：library discover/add/apply/list → scan → cmp → cat → rv → rel → action。底层 python -m lib_guard.cli 只作为自动化与调试入口。</text>
</svg>
